<?xml version="1.0" encoding="iso-8859-1"?>
<!-- Generator: Adobe Illustrator 19.0.0, SVG Export Plug-In . SVG Version: 6.00 Build 0)  -->
<svg version="1.1" id="Layer_1" xmlns="http://www.w3.org/2000/svg" xmlns:xlink="http://www.w3.org/1999/xlink" x="0px" y="0px"
	 viewBox="0 0 508 508" style="enable-background:new 0 0 508 508;" xml:space="preserve">
<path style="fill:#AEB1B4;" d="M2,236v168c0,12,12,24,24,24h456c12,0,20-12,20-24V236H2z"/>
<path style="fill:#7D8B95;" d="M482,148h-2H26c-12,0-24,8-24,20v68h500v-66v-2C502,156,494,148,482,148z"/>
<g>
	<path style="fill:#F4EFEF;" d="M98,264c-35.2,0-64,28.8-64,64s28.8,64,64,64s64-28.8,64-64S133.2,264,98,264z"/>
	<path style="fill:#F4EFEF;" d="M414,264c-35.2,0-64,28.8-64,64s28.8,64,64,64s64-28.8,64-64S449.2,264,414,264z"/>
</g>
<path style="fill:#354E5C;" d="M98,284c-24.4,0-44,19.6-44,44s19.6,44,44,44s44-19.6,44-44S122.4,284,98,284z"/>
<path style="fill:#7D8B95;" d="M310,368v-68H194v68H310z"/>
<path style="fill:#354E5C;" d="M414,284c-24.4,0-44,19.6-44,44s19.6,44,44,44s44-19.6,44-44S438.4,284,414,284z"/>
<g>
	<circle style="fill:#F4EFEF;" cx="220" cy="330" r="6"/>
	<circle style="fill:#F4EFEF;" cx="292" cy="330" r="6"/>
</g>
<path style="fill:#354E5C;" d="M376,80H136c-22,0-42,14-42,34v30h12v-30c0-15.2,16.4-22,30-22h240c14.4,0,22,7.6,22,22v30h12v-30
	C410,93.2,396.8,80,376,80z"/>
<path style="fill:#E8E3E3;" d="M64,168c-10,0-18,8-18,18s8,18,18,18s18-8,18-18S74,168,64,168z"/>
<g>
	<path style="fill:#F4EFEF;" d="M146,184h-2h-30c-3.2,0-6,2.8-6,6s2.8,6,6,6h32c2.8,0,5.6-3.2,6-6c0-0.4,0,0,0-0.4
		C152,186,149.2,184,146,184z"/>
	<path style="fill:#F4EFEF;" d="M194,184h-2h-10c-3.2,0-6,2.8-6,6s2.8,6,6,6h12c2.8,0,5.6-3.2,6-6c0-0.4,0,0,0-0.4
		C200,186,197.2,184,194,184z"/>
</g>
<path d="M480,434H24c-14.4,0-24-10.8-24-28V170c0-17.2,9.6-28,24-28h456c15.6,0,28,12.4,28,28v236C508,421.6,495.6,434,480,434z
	 M24,150c-14.8,0-16,15.2-16,20v236c0,4.8,1.2,20,16,20h456c11.2,0,20-8.8,20-20V170c0-11.2-8.8-20-20-20H24z"/>
<path d="M98,398c-38.4,0-70-31.6-70-70s31.6-70,70-70s70,31.6,70,70S136.4,398,98,398z M98,266c-34,0-62,28-62,62s28,62,62,62
	s62-28,62-62S132,266,98,266z"/>
<path d="M414,398c-38.4,0-70-31.6-70-70s31.6-70,70-70s70,31.6,70,70S452.4,398,414,398z M414,266c-34,0-62,28-62,62s28,62,62,62
	s62-28,62-62S448,266,414,266z"/>
<path d="M98,378c-27.6,0-50-22.4-50-50s22.4-50,50-50s50,22.4,50,50S125.6,378,98,378z M98,286c-23.2,0-42,18.8-42,42s18.8,42,42,42
	s42-18.8,42-42S121.2,286,98,286z"/>
<path d="M414,378c-27.6,0-50-22.4-50-50s22.4-50,50-50s50,22.4,50,50S441.6,378,414,378z M414,286c-23.2,0-42,18.8-42,42
	s18.8,42,42,42s42-18.8,42-42S437.2,286,414,286z"/>
<path d="M312,374H192c-2.4,0-4-1.6-4-4v-72c0-2.4,1.6-4,4-4h120c2.4,0,4,1.6,4,4v72C316,372.4,314.4,374,312,374z M196,366h112v-64
	H196V366z"/>
<path d="M220,342c-6.8,0-12-5.2-12-12s5.2-12,12-12s12,5.2,12,12S226.8,342,220,342z M220,326c-2.4,0-4,1.6-4,4s1.6,4,4,4s4-1.6,4-4
	S222.4,326,220,326z"/>
<path d="M292,342c-6.8,0-12-5.2-12-12s5.2-12,12-12s12,5.2,12,12S298.8,342,292,342z M292,326c-2.4,0-4,1.6-4,4s1.6,4,4,4s4-1.6,4-4
	S294.4,326,292,326z"/>
<path d="M446,238H6c-2.4,0-4-1.6-4-4s1.6-4,4-4h440c2.4,0,4,1.6,4,4S448.4,238,446,238z"/>
<path d="M502,238h-24c-2.4,0-4-1.6-4-4s1.6-4,4-4h24c2.4,0,4,1.6,4,4S504.4,238,502,238z"/>
<path d="M64,210c-13.2,0-24-10.8-24-24s10.8-24,24-24s24,10.8,24,24S77.2,210,64,210z M64,170c-8.8,0-16,7.2-16,16s7.2,16,16,16
	s16-7.2,16-16S72.8,170,64,170z"/>
<path d="M144,202h-32c-6.8,0-12-5.2-12-12s5.2-12,12-12h32c6.8,0,12,5.2,12,12S150.8,202,144,202z M112,186c-2.4,0-4,1.6-4,4
	s1.6,4,4,4h32c2.4,0,4-1.6,4-4s-1.6-4-4-4H112z"/>
<path d="M192,202h-12c-6.8,0-12-5.2-12-12s5.2-12,12-12h12c6.8,0,12,5.2,12,12S198.8,202,192,202z M180,186c-2.4,0-4,1.6-4,4
	s1.6,4,4,4h12c2.4,0,4-1.6,4-4s-1.6-4-4-4H180z"/>
<path d="M462,174H330c-2.4,0-4-1.6-4-4s1.6-4,4-4h132c2.4,0,4,1.6,4,4S464.4,174,462,174z"/>
<path d="M462,214H330c-2.4,0-4-1.6-4-4s1.6-4,4-4h132c2.4,0,4,1.6,4,4S464.4,214,462,214z"/>
<path d="M462,194H330c-2.4,0-4-1.6-4-4s1.6-4,4-4h132c2.4,0,4,1.6,4,4S464.4,194,462,194z"/>
<path d="M412,148c-2.4,0-4-1.6-4-4v-30c0-19.6-12.4-32-32-32H136c-19.6,0-40,12-40,32v26c0,2.4-1.6,4-4,4s-4-1.6-4-4v-26
	c0-25.2,24.4-40,48-40h240c24.4,0,40,15.6,40,40v30C416,146.4,414.4,148,412,148z M396,148c-2.4,0-4-1.6-4-4v-30
	c0-11.2-4.8-16-16-16H136c-11.6,0-24,5.6-24,16v26c0,2.4-1.6,4-4,4s-4-1.6-4-4v-26c0-15.6,16.4-24,32-24h240c15.6,0,24,8.4,24,24v30
	C400,146.4,398.4,148,396,148z"/>
<g>
</g>
<g>
</g>
<g>
</g>
<g>
</g>
<g>
</g>
<g>
</g>
<g>
</g>
<g>
</g>
<g>
</g>
<g>
</g>
<g>
</g>
<g>
</g>
<g>
</g>
<g>
</g>
<g>
</g>
</svg>
