<?xml version="1.0" encoding="iso-8859-1"?>
<!-- Generator: Adobe Illustrator 19.0.0, SVG Export Plug-In . SVG Version: 6.00 Build 0)  -->
<svg version="1.1" id="Layer_1" xmlns="http://www.w3.org/2000/svg" xmlns:xlink="http://www.w3.org/1999/xlink" x="0px" y="0px"
	 viewBox="0 0 512 512" style="enable-background:new 0 0 512 512;" xml:space="preserve">
<g>
	<g>
		<path d="M473.12,128H38.88C17.44,128,0,146.16,0,168.464v239.072C0,429.84,17.44,448,38.88,448h434.24
			c21.44,0,38.88-18.16,38.88-40.48V168.464C512,146.16,494.56,128,473.12,128z M480,407.536c0,4.592-3.152,8.464-6.88,8.464H38.88
			c-3.744,0-6.88-3.872-6.88-8.48V168.464c0-4.592,3.136-8.464,6.88-8.464h434.24c3.744,0,6.88,3.872,6.88,8.464V407.536z"/>
	</g>
</g>
<g>
	<g>
		<path d="M111.488,255.856c-44.272,0-80.272,36-80.272,80.272c0,44.272,36,80.288,80.272,80.288
			c44.256,0,80.288-36.016,80.288-80.288C191.776,291.856,155.76,255.856,111.488,255.856z M111.488,384.432
			c-26.608,0-48.272-21.664-48.272-48.288c0-26.608,21.664-48.272,48.272-48.272c26.624,0,48.272,21.664,48.288,48.272
			C159.776,362.768,138.112,384.432,111.488,384.432z"/>
	</g>
</g>
<g>
	<g>
		<path d="M401.12,255.856c-44.272,0-80.288,36-80.288,80.272c0,44.272,36.016,80.288,80.288,80.288
			c44.272,0,80.272-36.016,80.272-80.288C481.392,291.856,445.392,255.856,401.12,255.856z M401.12,384.432
			c-26.624,0-48.288-21.664-48.288-48.288c0-26.608,21.664-48.272,48.288-48.272c26.608,0,48.272,21.664,48.272,48.272
			C449.392,362.768,427.728,384.432,401.12,384.432z"/>
	</g>
</g>
<g>
	<g>
		<path d="M304,288h-96c-8.848,0-16,7.152-16,16v64c0,8.848,7.152,16,16,16h96c8.848,0,16-7.152,16-16v-64
			C320,295.152,312.848,288,304,288z M288,352h-64v-32h64V352z"/>
	</g>
</g>
<g>
	<g>
		<path d="M496,224H16c-8.848,0-16,7.152-16,16s7.152,16,16,16h480c8.848,0,16-7.152,16-16S504.848,224,496,224z"/>
	</g>
</g>
<g>
	<g>
		<circle cx="64.16" cy="192.48" r="15.504"/>
	</g>
</g>
<g>
	<g>
		<path d="M144,176h-32c-8.848,0-16,7.152-16,16s7.152,16,16,16h32c8.848,0,16-7.152,16-16S152.848,176,144,176z"/>
	</g>
</g>
<g>
	<g>
		<path d="M448,176h-96c-8.848,0-16,7.152-16,16s7.152,16,16,16h96c8.848,0,16-7.152,16-16S456.848,176,448,176z"/>
	</g>
</g>
<g>
	<g>
		<path d="M202.88,180.8c-5.92-6.08-16.8-5.92-22.56,0c-3.04,2.88-4.8,7.04-4.8,11.36c0,4.16,1.776,8.32,4.8,11.2
			c2.88,3.04,7.04,4.8,11.2,4.8c4.32,0,8.48-1.776,11.36-4.8c3.056-2.864,4.8-7.04,4.8-11.2
			C207.68,187.84,205.92,183.68,202.88,180.8z"/>
	</g>
</g>
<g>
	<g>
		<path d="M376.416,64H135.408C104.864,64,80,87.936,80,117.36V144c0,8.848,7.152,16,16,16s16-7.152,16-16v-26.64
			C112,105.584,122.496,96,135.408,96h241.008C389.424,96,400,105.584,400,117.36V144c0,8.848,7.152,16,16,16
			c8.848,0,16-7.152,16-16v-26.64C432,87.936,407.056,64,376.416,64z"/>
	</g>
</g>
<g>
</g>
<g>
</g>
<g>
</g>
<g>
</g>
<g>
</g>
<g>
</g>
<g>
</g>
<g>
</g>
<g>
</g>
<g>
</g>
<g>
</g>
<g>
</g>
<g>
</g>
<g>
</g>
<g>
</g>
</svg>
