<?xml version="1.0" encoding="iso-8859-1"?>
<!-- Generator: Adobe Illustrator 19.0.0, SVG Export Plug-In . SVG Version: 6.00 Build 0)  -->
<svg version="1.1" id="Capa_1" xmlns="http://www.w3.org/2000/svg" xmlns:xlink="http://www.w3.org/1999/xlink" x="0px" y="0px"
	 viewBox="0 0 512 512" style="enable-background:new 0 0 512 512;" xml:space="preserve">
<g>
	<g>
		<g>
			<path d="M307.2,494.933H25.6c-4.711-0.003-8.53-3.822-8.533-8.533V25.6c0.003-4.711,3.822-8.53,8.533-8.533h256V76.8
				c0.012,9.421,7.646,17.054,17.067,17.067H358.4v153.6c0,4.713,3.82,8.533,8.533,8.533s8.533-3.82,8.533-8.533V85.333
				c-0.013-2.266-0.914-4.436-2.511-6.044L296.178,2.511c-1.608-1.597-3.778-2.498-6.044-2.511H25.6
				C11.468,0.015,0.015,11.468,0,25.6v460.8c0.015,14.132,11.468,25.585,25.6,25.6h281.6c4.713,0,8.533-3.82,8.533-8.533
				S311.913,494.933,307.2,494.933z M298.667,29.133L346.333,76.8h-47.667V29.133z"/>
			<path d="M156.783,251.867l84.425-71.25c4.096-3.466,6.398-8.604,6.258-13.968s-2.705-10.375-6.975-13.624l-84.408-64.108
				c-5.316-4.023-12.456-4.679-18.417-1.692c-5.961,2.987-9.708,9.1-9.666,15.767v135.35c-0.02,9.726,7.84,17.632,17.567,17.667
				C149.678,256,153.653,254.533,156.783,251.867z M145.067,102.992l0.692-0.492l84.417,64.108l5.158-6.792l-5.133,7.758
				l-84.417,71.242l5.5,6.525l-6.217-7V102.992z"/>
			<path d="M279.102,313.235c1.601-1.601,2.499-3.772,2.498-6.035c0.001-2.264-0.897-4.435-2.498-6.035
				c-1.601-1.601-3.772-2.499-6.035-2.498H59.733c-4.713,0-8.533,3.82-8.533,8.533s3.82,8.533,8.533,8.533h213.333
				C275.33,315.735,277.501,314.836,279.102,313.235z"/>
			<path d="M247.467,341.333H59.733c-4.713,0-8.533,3.82-8.533,8.533s3.82,8.533,8.533,8.533h187.733
				c4.713,0,8.533-3.82,8.533-8.533S252.18,341.333,247.467,341.333z"/>
			<path d="M247.467,384H59.733c-4.713,0-8.533,3.821-8.533,8.533c0,4.713,3.82,8.533,8.533,8.533h187.733
				c4.713,0,8.533-3.821,8.533-8.533C256,387.821,252.18,384,247.467,384z"/>
			<path d="M247.467,426.667H59.733c-4.713,0-8.533,3.82-8.533,8.533s3.82,8.533,8.533,8.533h187.733
				c4.713,0,8.533-3.82,8.533-8.533S252.18,426.667,247.467,426.667z"/>
			<path d="M392.533,273.067c-65.98,0-119.467,53.487-119.467,119.467S326.554,512,392.533,512S512,458.513,512,392.533
				C511.926,326.584,458.482,273.141,392.533,273.067z M392.533,494.933c-56.554,0-102.4-45.846-102.4-102.4
				c0-56.554,45.846-102.4,102.4-102.4c56.554,0,102.4,45.846,102.4,102.4C494.872,449.062,449.062,494.872,392.533,494.933z"/>
			<path d="M452.267,384h-51.2v-51.2c0-4.713-3.821-8.533-8.533-8.533c-4.713,0-8.533,3.821-8.533,8.533V384h-51.2
				c-4.713,0-8.533,3.821-8.533,8.533c0,4.713,3.821,8.533,8.533,8.533H384v51.2c0,4.713,3.821,8.533,8.533,8.533
				c4.713,0,8.533-3.821,8.533-8.533v-51.2h51.2c4.713,0,8.533-3.821,8.533-8.533C460.8,387.821,456.979,384,452.267,384z"/>
		</g>
	</g>
</g>
<g>
</g>
<g>
</g>
<g>
</g>
<g>
</g>
<g>
</g>
<g>
</g>
<g>
</g>
<g>
</g>
<g>
</g>
<g>
</g>
<g>
</g>
<g>
</g>
<g>
</g>
<g>
</g>
<g>
</g>
</svg>
