<?xml version="1.0" encoding="iso-8859-1"?>
<!-- Generator: Adobe Illustrator 19.0.0, SVG Export Plug-In . SVG Version: 6.00 Build 0)  -->
<svg version="1.1" id="Capa_1" xmlns="http://www.w3.org/2000/svg" xmlns:xlink="http://www.w3.org/1999/xlink" x="0px" y="0px"
	 viewBox="0 0 512.001 512.001" style="enable-background:new 0 0 512.001 512.001;" xml:space="preserve">
<g>
	<g transform="translate(1 1)">
		<path style="fill:#A4C2F7;" d="M365.933,84.334V485.4c-0.028,9.414-7.652,17.039-17.067,17.067H24.6
			c-9.414-0.028-17.039-7.653-17.067-17.067V24.6C7.561,15.186,15.186,7.561,24.6,7.534h264.533V75.8
			c0.014,4.707,3.826,8.519,8.533,8.533H365.933z"/>
		<path style="fill:#E3E7F2;" d="M340.333,84.334V485.4c-0.028,9.414-7.652,17.039-17.067,17.067H24.6
			c-9.414-0.028-17.039-7.653-17.067-17.067V24.6C7.561,15.186,15.186,7.561,24.6,7.534h238.933V75.8
			c0.014,4.707,3.826,8.519,8.533,8.533H340.333z"/>
		<path style="fill:#A4C2F7;" d="M365.933,84.334h-68.267c-4.707-0.014-8.519-3.826-8.533-8.533V7.534L365.933,84.334z"/>
		<g>
			<path style="fill:#E3E7F2;" d="M135.533,101.989v135.355c-0.043,3.509,1.962,6.721,5.132,8.224s6.926,1.024,9.616-1.229
				l84.417-71.239c2.114-1.796,3.303-4.453,3.232-7.226c-0.07-2.773-1.391-5.366-3.594-7.053L149.92,94.705
				c-2.736-2.06-6.406-2.384-9.461-0.837C137.403,95.415,135.493,98.564,135.533,101.989z"/>
			<circle style="fill:#E3E7F2;" cx="391.533" cy="391.534" r="110.933"/>
		</g>
		<path style="fill:#FFFFFF;" d="M50.2,7.534H24.6C15.186,7.561,7.561,15.186,7.533,24.6v460.8
			c0.028,9.414,7.653,17.039,17.067,17.067h25.6c-9.414-0.028-17.039-7.653-17.067-17.067V24.6
			C33.161,15.186,40.786,7.561,50.2,7.534z"/>
	</g>
	<g>
		<polygon style="fill:#FFFFFF;" points="17.067,25.6 17.067,136.534 17.067,486.4 0,486.4 0,136.534 0,25.6 		"/>
		<g>
			<path style="fill:#428DFF;" d="M8.533,102.4c2.259-0.034,4.422-0.918,6.059-2.475c3.3-3.365,3.3-8.752,0-12.117l-1.279-1.025
				c-0.476-0.324-0.993-0.583-1.538-0.771c-0.484-0.246-1.003-0.417-1.538-0.509c-0.563-0.096-1.133-0.153-1.704-0.171
				c-2.259,0.031-4.423,0.915-6.059,2.475c-3.222,3.397-3.222,8.721,0,12.117c0.815,0.77,1.77,1.379,2.813,1.792
				C6.314,102.155,7.417,102.387,8.533,102.4z"/>
			<path style="fill:#428DFF;" d="M145.567,256.009c4.112-0.008,8.087-1.476,11.217-4.142l84.425-71.25
				c4.096-3.466,6.398-8.604,6.258-13.968c-0.139-5.364-2.705-10.375-6.975-13.624l-84.408-64.108
				c-5.316-4.023-12.456-4.679-18.417-1.692c-5.961,2.987-9.708,9.1-9.666,15.767v135.35
				C127.98,248.068,135.84,255.974,145.567,256.009z M145.067,102.992l0.692-0.492l84.417,64.108l5.158-6.792l-5.133,7.758
				l-84.417,71.242l5.5,6.525l-6.217-7V102.992z"/>
			<path style="fill:#428DFF;" d="M51.2,307.2c-0.001,2.264,0.897,4.435,2.498,6.035c1.601,1.601,3.772,2.499,6.035,2.498h213.333
				c4.713,0,8.533-3.82,8.533-8.533s-3.82-8.533-8.533-8.533H59.733c-2.264-0.001-4.435,0.897-6.035,2.498
				C52.097,302.766,51.199,304.937,51.2,307.2z"/>
			<path style="fill:#428DFF;" d="M59.733,358.4h187.733c4.713,0,8.533-3.821,8.533-8.533c0-4.713-3.82-8.533-8.533-8.533H59.733
				c-4.713,0-8.533,3.821-8.533,8.533C51.2,354.58,55.021,358.4,59.733,358.4z"/>
			<path style="fill:#428DFF;" d="M59.733,401.067h187.733c4.713,0,8.533-3.82,8.533-8.533S252.18,384,247.467,384H59.733
				c-4.713,0-8.533,3.82-8.533,8.533S55.021,401.067,59.733,401.067z"/>
			<path style="fill:#428DFF;" d="M59.733,443.734h187.733c4.713,0,8.533-3.821,8.533-8.533s-3.82-8.533-8.533-8.533H59.733
				c-4.713,0-8.533,3.82-8.533,8.533S55.021,443.734,59.733,443.734z"/>
			<path style="fill:#428DFF;" d="M392.533,273.067c-5.714,0.045-11.418,0.5-17.067,1.363V85.334
				c-0.013-2.266-0.914-4.436-2.511-6.044L296.178,2.511c-1.608-1.597-3.778-2.498-6.044-2.511H25.6
				C11.468,0.016,0.015,11.468,0,25.6v34.133c0,4.713,3.821,8.533,8.533,8.533s8.533-3.821,8.533-8.533V25.6
				c0.003-4.712,3.822-8.53,8.533-8.533h256V76.8c0.012,9.421,7.646,17.054,17.067,17.067H358.4v184.231
				c-45.412,13.482-78.542,52.56-84.414,99.565c-5.871,47.006,16.629,93.032,57.33,117.27H25.6c-4.712-0.003-8.53-3.822-8.533-8.533
				V128c0-4.713-3.821-8.533-8.533-8.533S0,123.287,0,128v358.4c0.015,14.132,11.468,25.585,25.6,25.6h341.333
				c1.871-0.036,3.676-0.7,5.125-1.884c44.463,7.759,89.502-10.214,116.407-46.454c26.905-36.24,31.078-84.552,10.785-124.869
				C478.958,298.477,437.669,273.047,392.533,273.067z M298.667,29.134L346.333,76.8h-47.667V29.134z M392.533,494.934
				c-56.554,0-102.4-45.846-102.4-102.4s45.846-102.4,102.4-102.4s102.4,45.846,102.4,102.4
				C494.872,449.062,449.062,494.872,392.533,494.934z"/>
			<path style="fill:#428DFF;" d="M452.267,384h-51.2v-51.2c0-4.713-3.82-8.533-8.533-8.533S384,328.087,384,332.8V384h-51.2
				c-4.713,0-8.533,3.82-8.533,8.533s3.82,8.533,8.533,8.533H384v51.2c0,4.713,3.82,8.533,8.533,8.533s8.533-3.82,8.533-8.533v-51.2
				h51.2c4.713,0,8.533-3.82,8.533-8.533S456.98,384,452.267,384z"/>
		</g>
	</g>
</g>
<g>
</g>
<g>
</g>
<g>
</g>
<g>
</g>
<g>
</g>
<g>
</g>
<g>
</g>
<g>
</g>
<g>
</g>
<g>
</g>
<g>
</g>
<g>
</g>
<g>
</g>
<g>
</g>
<g>
</g>
</svg>
