<svg height="344pt" viewBox="0 -6 344 344" width="344pt" xmlns="http://www.w3.org/2000/svg"><path d="m16.257812 2.648438c-3.019531-2.375-7.125-2.824219-10.582031-1.152344-3.457031 1.667968-5.660156 5.164062-5.675781 9.003906v311c.015625 3.839844 2.214844 7.332031 5.671875 9 3.457031 1.671875 7.5625 1.222656 10.578125-1.152344l196.980469-155.5c2.402343-1.894531 3.804687-4.789062 3.804687-7.847656 0-3.0625-1.402344-5.953125-3.804687-7.851562zm3.742188 298.21875v-269.734376l170.839844 134.867188zm0 0"/><path d="m344 10c0-5.523438-4.476562-10-10-10h-71c-5.523438 0-10 4.476562-10 10v311c0 5.523438 4.476562 10 10 10h71c5.523438 0 10-4.476562 10-10zm-20 302h-51v-292h51zm0 0"/></svg>