<svg width="19" height="17" viewBox="0 0 19 17" fill="none" xmlns="http://www.w3.org/2000/svg">
<path fill-rule="evenodd" clip-rule="evenodd" d="M9.46488 15.938C9.31737 15.938 9.17749 15.8721 9.08333 15.7582C7.64509 14.0193 6.1907 12.7262 4.90759 11.5852C2.72434 9.64395 1 8.1106 1 5.68758C1 4.43652 1.44484 3.2678 2.25263 2.39681C3.08806 1.49612 4.2402 1 5.49697 1C6.89775 1 8.11473 1.67532 9.01642 2.95283C9.19402 3.20439 9.34256 3.45583 9.46488 3.68936C9.58719 3.45583 9.73573 3.20439 9.91333 2.95283C10.815 1.67532 12.032 1 13.4328 1C14.6896 1 15.8417 1.49612 16.6771 2.39681C17.4849 3.2678 17.9298 4.43639 17.9298 5.68758C17.9298 8.1106 16.2054 9.64395 14.0222 11.5851C12.739 12.7261 11.2847 14.0193 9.84643 15.7582C9.75227 15.8721 9.61238 15.938 9.46488 15.938Z" stroke="white" stroke-opacity="0.27"/>
</svg>
