<svg height="344pt" viewBox="0 -6 344.003 344" width="344pt" xmlns="http://www.w3.org/2000/svg"><path d="m130.765625 173.851562 196.976563 155.5c1.765624 1.394532 3.949218 2.152344 6.199218 2.148438 5.539063.011719 10.039063-4.460938 10.0625-10v-311c-.015625-3.835938-2.214844-7.328125-5.667968-8.996094-3.457032-1.671875-7.558594-1.226562-10.574219 1.148438l-196.984375 155.5c-2.402344 1.894531-3.808594 4.789062-3.808594 7.847656 0 3.0625 1.398438 5.953125 3.800781 7.851562zm193.234375-142.71875v269.738282l-170.839844-134.871094zm0 0"/><path d="m91 10c0-5.519531-4.476562-10-10-10h-71c-5.523438 0-10 4.480469-10 10v311c0 5.523438 4.476562 10 10 10h71c5.523438 0 10-4.476562 10-10zm-20 302h-51v-292h51zm0 0"/></svg>