<svg width="22" height="22" viewBox="0 0 22 22" fill="none" xmlns="http://www.w3.org/2000/svg">
<path d="M8.25006 0.000488281H0.916802C0.668375 0.000488281 0.45351 0.09114 0.272106 0.272594C0.0906518 0.453998 0 0.668813 0 0.917089V21.0838C0 21.332 0.0906518 21.547 0.272106 21.7283C0.45366 21.9097 0.668525 22.0006 0.916802 22.0006H8.25026C8.49854 22.0006 8.71335 21.9097 8.89476 21.7283C9.07621 21.547 9.16686 21.332 9.16686 21.0838V0.917089C9.16686 0.668662 9.07621 0.453998 8.89456 0.272594C8.7132 0.09114 8.49834 0.000488281 8.25006 0.000488281Z" fill="white"/>
<path d="M21.7289 0.272106C21.5474 0.0906517 21.3327 0 21.0844 0H13.751C13.5027 0 13.2876 0.0906517 13.1065 0.272106C12.9248 0.453459 12.834 0.668325 12.834 0.916601V21.0833C12.834 21.3315 12.9248 21.5465 13.1065 21.7278C13.2875 21.9092 13.5027 22.0001 13.751 22.0001H21.0844C21.3327 22.0001 21.5474 21.9092 21.7289 21.7278C21.9102 21.5465 22.0009 21.3316 22.0009 21.0833V0.916601C22.0008 0.668174 21.9103 0.45351 21.7289 0.272106Z" fill="white"/>
</svg>
