<svg width="21" height="4" viewBox="0 0 21 4" fill="none" xmlns="http://www.w3.org/2000/svg">
<path d="M1.848 3.612C1.316 3.612 0.872667 3.444 0.518 3.108C0.172667 2.76267 0 2.324 0 1.792C0 1.26 0.172667 0.830666 0.518 0.504C0.872667 0.168 1.316 0 1.848 0C2.38 0 2.81867 0.168 3.164 0.504C3.51867 0.830666 3.696 1.26 3.696 1.792C3.696 2.324 3.51867 2.76267 3.164 3.108C2.81867 3.444 2.38 3.612 1.848 3.612Z" fill="white" fill-opacity="0.691321"/>
<path d="M10.1 3.612C9.56795 3.612 9.12462 3.444 8.76995 3.108C8.42462 2.76267 8.25195 2.324 8.25195 1.792C8.25195 1.26 8.42462 0.830666 8.76995 0.504C9.12462 0.168 9.56795 0 10.1 0C10.632 0 11.0706 0.168 11.416 0.504C11.7706 0.830666 11.948 1.26 11.948 1.792C11.948 2.324 11.7706 2.76267 11.416 3.108C11.0706 3.444 10.632 3.612 10.1 3.612Z" fill="white" fill-opacity="0.691321"/>
<path d="M18.3519 3.612C17.8199 3.612 17.3766 3.444 17.0219 3.108C16.6766 2.76267 16.5039 2.324 16.5039 1.792C16.5039 1.26 16.6766 0.830666 17.0219 0.504C17.3766 0.168 17.8199 0 18.3519 0C18.8839 0 19.3226 0.168 19.6679 0.504C20.0226 0.830666 20.1999 1.26 20.1999 1.792C20.1999 2.324 20.0226 2.76267 19.6679 3.108C19.3226 3.444 18.8839 3.612 18.3519 3.612Z" fill="white" fill-opacity="0.691321"/>
</svg>
