<svg width="17" height="15" viewBox="0 0 17 15" fill="none" xmlns="http://www.w3.org/2000/svg">
<path fill-rule="evenodd" clip-rule="evenodd" d="M8.46488 14.938C8.31737 14.938 8.17749 14.8721 8.08333 14.7582C6.64509 13.0193 5.1907 11.7262 3.90759 10.5852C1.72434 8.64395 0 7.1106 0 4.68758C0 3.43652 0.44484 2.2678 1.25263 1.39681C2.08806 0.496119 3.2402 0 4.49697 0C5.89775 0 7.11473 0.675323 8.01642 1.95283C8.19402 2.20439 8.34256 2.45583 8.46488 2.68936C8.58719 2.45583 8.73573 2.20439 8.91333 1.95283C9.81503 0.675323 11.032 0 12.4328 0C13.6896 0 14.8417 0.496119 15.6771 1.39681C16.4849 2.2678 16.9298 3.43639 16.9298 4.68758C16.9298 7.1106 15.2054 8.64395 13.0222 10.5851C11.739 11.7261 10.2847 13.0193 8.84643 14.7582C8.75227 14.8721 8.61238 14.938 8.46488 14.938Z" fill="#63C8FF"/>
</svg>
