<?xml version="1.0" encoding="iso-8859-1"?>
<!-- Generator: Adobe Illustrator 19.0.0, SVG Export Plug-In . SVG Version: 6.00 Build 0)  -->
<svg version="1.1" id="Capa_1" xmlns="http://www.w3.org/2000/svg" xmlns:xlink="http://www.w3.org/1999/xlink" x="0px" y="0px"
	 viewBox="0 0 512 512" style="enable-background:new 0 0 512 512;" xml:space="preserve">
<path style="fill:#303C42;" d="M288,192h-64c-5.896,0-10.667,4.771-10.667,10.667v234.667c0,5.896,4.771,10.667,10.667,10.667h64
	c5.896,0,10.667-4.771,10.667-10.667V202.667C298.667,196.771,293.896,192,288,192z"/>
<rect x="234.667" y="213.333" style="fill:#1E88E5;" width="42.667" height="213.333"/>
<path style="fill:#303C42;" d="M394.667,128h-64c-5.896,0-10.667,4.771-10.667,10.667v298.667c0,5.896,4.771,10.667,10.667,10.667
	h64c5.896,0,10.667-4.771,10.667-10.667V138.667C405.333,132.771,400.563,128,394.667,128z"/>
<rect x="341.333" y="149.333" style="fill:#1E88E5;" width="42.667" height="277.333"/>
<path style="fill:#303C42;" d="M501.333,64h-64c-5.896,0-10.667,4.771-10.667,10.667v362.667c0,5.896,4.771,10.667,10.667,10.667h64
	c5.896,0,10.667-4.771,10.667-10.667V74.667C512,68.771,507.229,64,501.333,64z"/>
<rect x="448" y="85.333" style="fill:#1E88E5;" width="42.667" height="341.333"/>
<path style="fill:#303C42;" d="M181.333,256h-64c-5.896,0-10.667,4.771-10.667,10.667v170.667c0,5.896,4.771,10.667,10.667,10.667
	h64c5.896,0,10.667-4.771,10.667-10.667V266.667C192,260.771,187.229,256,181.333,256z"/>
<rect x="128" y="277.333" style="fill:#1E88E5;" width="42.667" height="149.333"/>
<path style="fill:#303C42;" d="M74.667,320h-64C4.771,320,0,324.771,0,330.667v106.667C0,443.229,4.771,448,10.667,448h64
	c5.896,0,10.667-4.771,10.667-10.667V330.667C85.333,324.771,80.563,320,74.667,320z"/>
<rect x="21.333" y="341.333" style="fill:#1E88E5;" width="42.667" height="85.333"/>
<linearGradient id="SVGID_1_" gradientUnits="userSpaceOnUse" x1="-43.2652" y1="638.4739" x2="-21.547" y2="628.3542" gradientTransform="matrix(21.3333 0 0 -21.3333 996.3334 13791.667)">
	<stop  offset="0" style="stop-color:#FFFFFF;stop-opacity:0.2"/>
	<stop  offset="1" style="stop-color:#FFFFFF;stop-opacity:0"/>
</linearGradient>
<path style="fill:url(#SVGID_1_);" d="M288,192h-64c-5.896,0-10.667,4.771-10.667,10.667v234.667
	c0,5.896,4.771,10.667,10.667,10.667h64c5.896,0,10.667-4.771,10.667-10.667V202.667C298.667,196.771,293.896,192,288,192z
	 M394.667,128h-64c-5.896,0-10.667,4.771-10.667,10.667v298.667c0,5.896,4.771,10.667,10.667,10.667h64
	c5.896,0,10.667-4.771,10.667-10.667V138.667C405.333,132.771,400.563,128,394.667,128z M501.333,64h-64
	c-5.896,0-10.667,4.771-10.667,10.667v362.667c0,5.896,4.771,10.667,10.667,10.667h64c5.896,0,10.667-4.771,10.667-10.667V74.667
	C512,68.771,507.229,64,501.333,64z M181.333,256h-64c-5.896,0-10.667,4.771-10.667,10.667v170.667
	c0,5.896,4.771,10.667,10.667,10.667h64c5.896,0,10.667-4.771,10.667-10.667V266.667C192,260.771,187.229,256,181.333,256z
	 M74.667,320h-64C4.771,320,0,324.771,0,330.667v106.667C0,443.229,4.771,448,10.667,448h64c5.896,0,10.667-4.771,10.667-10.667
	V330.667C85.333,324.771,80.563,320,74.667,320z"/>
<g>
</g>
<g>
</g>
<g>
</g>
<g>
</g>
<g>
</g>
<g>
</g>
<g>
</g>
<g>
</g>
<g>
</g>
<g>
</g>
<g>
</g>
<g>
</g>
<g>
</g>
<g>
</g>
<g>
</g>
</svg>
